<?xml version="1.0" encoding="UTF-8"?>
<svg xmlns="http://www.w3.org/2000/svg" xmlns:xlink="http://www.w3.org/1999/xlink" width="26px" height="26px" viewBox="0 0 26 26" version="1.1">
<g id="surface1">
<path style=" stroke:none;fill-rule:nonzero;fill:rgb(0%,0%,0%);fill-opacity:1;" d="M 13 26 C 11.375 26 2.496094 20.898438 1.6875 19.5 C 0.878906 18.109375 0.878906 7.902344 1.6875 6.5 C 2.488281 5.105469 11.371094 0 13 0 C 14.613281 0 23.496094 5.101562 24.308594 6.496094 C 25.125 7.890625 25.125 18.101562 24.3125 19.503906 C 23.5 20.898438 14.617188 26 13 26 Z M 13 1.082031 C 11.765625 1.082031 3.234375 5.980469 2.625 7.039062 C 2.015625 8.101562 2.015625 17.902344 2.625 18.957031 C 3.234375 20.015625 11.769531 24.914062 13 24.914062 C 14.226562 24.914062 22.757812 20.015625 23.375 18.957031 C 23.992188 17.894531 23.992188 8.097656 23.375 7.042969 C 22.757812 5.984375 14.222656 1.082031 13 1.082031 Z M 13 1.082031 "/>
<path style=" stroke:none;fill-rule:nonzero;fill:rgb(0%,0%,0%);fill-opacity:1;" d="M 16.078125 21.574219 C 15.480469 21.570312 13.765625 19.675781 13.628906 19.347656 C 13.546875 19.144531 13.589844 18.839844 13.746094 18.683594 C 13.882812 18.546875 14.039062 18.492188 14.488281 18.457031 C 14.492188 17.265625 14.511719 15.710938 14.53125 14.839844 L 11.488281 14.839844 C 11.488281 15.503906 11.492188 16.632812 11.558594 17.96875 C 11.574219 18.230469 11.503906 18.445312 11.355469 18.601562 C 11.203125 18.761719 10.996094 18.839844 10.730469 18.839844 L 10.722656 18.839844 L 9.164062 18.835938 C 8.902344 18.835938 8.695312 18.757812 8.546875 18.601562 C 8.394531 18.445312 8.320312 18.230469 8.328125 17.96875 L 8.339844 17.535156 C 8.390625 15.835938 8.464844 13.285156 8.328125 7.539062 C 7.863281 7.503906 7.722656 7.441406 7.59375 7.3125 C 7.4375 7.160156 7.394531 6.859375 7.476562 6.65625 C 7.621094 6.304688 9.382812 4.421875 9.953125 4.421875 C 10.515625 4.421875 12.269531 6.304688 12.414062 6.65625 C 12.5 6.859375 12.453125 7.160156 12.300781 7.316406 C 12.171875 7.4375 12.03125 7.5 11.570312 7.539062 C 11.507812 8.515625 11.492188 9.941406 11.480469 11.113281 L 11.472656 11.992188 L 14.5 11.992188 C 14.5 10.765625 14.480469 9.535156 14.4375 8.304688 C 14.429688 8.054688 14.5 7.851562 14.640625 7.703125 C 14.785156 7.558594 14.984375 7.476562 15.1875 7.480469 C 15.761719 7.476562 16.332031 7.476562 16.902344 7.476562 C 17.113281 7.46875 17.3125 7.550781 17.460938 7.695312 C 17.605469 7.84375 17.679688 8.050781 17.671875 8.300781 C 17.53125 15.582031 17.585938 17.011719 17.617188 17.960938 C 17.625 18.132812 17.628906 18.289062 17.632812 18.460938 C 18.148438 18.5 18.261719 18.558594 18.382812 18.679688 C 18.542969 18.835938 18.585938 19.140625 18.5 19.347656 C 18.367188 19.671875 16.671875 21.5625 16.082031 21.574219 Z M 15.132812 19.507812 C 15.445312 19.824219 15.828125 20.183594 16.074219 20.386719 C 16.316406 20.183594 16.695312 19.824219 17 19.507812 C 16.742188 19.460938 16.554688 19.238281 16.554688 18.972656 C 16.554688 18.574219 16.546875 18.3125 16.535156 18 C 16.5 17.054688 16.449219 15.628906 16.585938 8.558594 C 16.234375 8.558594 15.882812 8.558594 15.53125 8.5625 C 15.59375 10.628906 15.585938 11.96875 15.582031 12.421875 L 15.582031 12.535156 C 15.582031 12.835938 15.339844 13.078125 15.039062 13.078125 L 10.921875 13.078125 C 10.773438 13.078125 10.632812 13.019531 10.53125 12.914062 C 10.429688 12.8125 10.375 12.667969 10.378906 12.523438 C 10.386719 12.144531 10.390625 11.652344 10.398438 11.105469 C 10.410156 9.757812 10.425781 8.085938 10.515625 7.132812 L 10.515625 7.023438 C 10.515625 6.78125 10.675781 6.566406 10.910156 6.5 C 10.605469 6.1875 10.285156 5.890625 9.953125 5.609375 C 9.703125 5.8125 9.308594 6.175781 8.988281 6.496094 C 9.234375 6.554688 9.40625 6.773438 9.40625 7.023438 L 9.40625 7.183594 C 9.554688 13.1875 9.476562 15.820312 9.425781 17.566406 L 9.417969 17.753906 L 10.464844 17.753906 C 10.417969 16.664062 10.398438 15.574219 10.40625 14.484375 L 10.40625 14.296875 C 10.40625 14 10.648438 13.757812 10.949219 13.757812 L 15.050781 13.757812 C 15.351562 13.757812 15.59375 14 15.59375 14.296875 C 15.609375 14.457031 15.617188 14.523438 15.617188 14.605469 C 15.597656 15.503906 15.570312 17.648438 15.570312 18.976562 C 15.570312 19.234375 15.386719 19.457031 15.132812 19.507812 Z M 10.148438 5.464844 Z M 10.148438 5.464844 "/>
</g>
</svg>
