<?xml version="1.0" encoding="UTF-8"?>
<svg xmlns="http://www.w3.org/2000/svg" xmlns:xlink="http://www.w3.org/1999/xlink" width="26px" height="26px" viewBox="0 0 26 26" version="1.1">
<g id="surface1">
<path style=" stroke:none;fill-rule:nonzero;fill:rgb(0%,0%,0%);fill-opacity:1;" d="M 21.996094 17.382812 L 11.636719 17.382812 C 10.625 17.382812 9.796875 16.515625 9.796875 15.445312 C 9.796875 14.375 10.625 13.507812 11.636719 13.507812 L 21.996094 13.507812 C 23.007812 13.507812 23.832031 14.375 23.832031 15.445312 C 23.832031 16.515625 23.007812 17.382812 21.996094 17.382812 Z M 11.636719 14.589844 C 11.21875 14.589844 10.882812 14.972656 10.882812 15.445312 C 10.882812 15.917969 11.21875 16.300781 11.636719 16.300781 L 21.996094 16.300781 C 22.410156 16.300781 22.75 15.917969 22.75 15.445312 C 22.75 14.972656 22.410156 14.589844 21.996094 14.589844 Z M 11.636719 14.589844 "/>
<path style=" stroke:none;fill-rule:nonzero;fill:rgb(0%,0%,0%);fill-opacity:1;" d="M 12.585938 26 C 10.847656 26 9.359375 25.421875 8.285156 24.332031 L 3.847656 19.800781 C 2.761719 18.699219 2.167969 17.136719 2.167969 15.398438 C 2.167969 13.691406 2.761719 12.140625 3.847656 11.039062 L 14.160156 0.550781 C 14.875 -0.175781 16.140625 -0.15625 16.875 0.589844 C 17.625 1.355469 17.644531 2.582031 16.910156 3.324219 L 15.003906 5.292969 C 15.707031 5.582031 16.347656 6.007812 16.886719 6.546875 L 19.554688 9.289062 C 20.285156 10.03125 20.265625 11.253906 19.511719 12.019531 C 19.148438 12.394531 18.644531 12.609375 18.121094 12.609375 C 17.621094 12.609375 17.152344 12.414062 16.800781 12.058594 L 14.054688 9.359375 C 13.707031 9.003906 13.210938 8.828125 12.574219 8.828125 C 11.917969 8.828125 11.414062 9 11.082031 9.335938 L 6.675781 13.878906 C 6.308594 14.257812 6.113281 14.78125 6.113281 15.394531 C 6.113281 16.019531 6.316406 16.589844 6.675781 16.953125 L 11.097656 21.484375 C 11.441406 21.832031 11.9375 22.007812 12.574219 22.007812 C 13.210938 22.007812 13.707031 21.832031 14.046875 21.484375 L 16.808594 18.769531 C 17.15625 18.417969 17.625 18.222656 18.117188 18.222656 L 18.121094 18.222656 C 18.644531 18.222656 19.136719 18.433594 19.515625 18.816406 C 20.265625 19.578125 20.285156 20.804688 19.554688 21.546875 L 16.890625 24.28125 C 15.800781 25.390625 14.273438 26 12.585938 26 Z M 15.480469 1.082031 C 15.273438 1.082031 15.078125 1.164062 14.929688 1.3125 L 4.621094 11.796875 C 3.738281 12.695312 3.25 13.976562 3.25 15.398438 C 3.25 16.851562 3.738281 18.144531 4.621094 19.042969 L 9.058594 23.570312 C 9.925781 24.449219 11.144531 24.917969 12.585938 24.917969 C 13.980469 24.917969 15.234375 24.421875 16.117188 23.527344 L 18.777344 20.792969 C 19.097656 20.464844 19.078125 19.921875 18.742188 19.578125 C 18.578125 19.40625 18.355469 19.3125 18.121094 19.308594 L 18.117188 19.308594 C 17.914062 19.308594 17.71875 19.390625 17.574219 19.535156 L 14.8125 22.25 C 14.273438 22.796875 13.5 23.09375 12.574219 23.09375 C 11.648438 23.09375 10.871094 22.796875 10.324219 22.242188 L 5.898438 17.710938 C 5.335938 17.140625 5.027344 16.320312 5.027344 15.398438 C 5.027344 14.503906 5.335938 13.699219 5.902344 13.125 L 10.308594 8.582031 C 10.851562 8.027344 11.613281 7.746094 12.570312 7.746094 C 13.496094 7.746094 14.273438 8.039062 14.820312 8.59375 L 17.566406 11.292969 C 17.710938 11.445312 17.910156 11.527344 18.121094 11.527344 C 18.355469 11.527344 18.578125 11.429688 18.738281 11.261719 C 19.078125 10.914062 19.097656 10.371094 18.78125 10.046875 L 16.113281 7.308594 C 15.511719 6.699219 14.75 6.273438 13.917969 6.078125 C 13.726562 6.03125 13.558594 5.886719 13.503906 5.699219 C 13.449219 5.511719 13.480469 5.304688 13.617188 5.164062 L 16.132812 2.566406 C 16.457031 2.242188 16.441406 1.695312 16.101562 1.351562 C 15.9375 1.179688 15.714844 1.085938 15.480469 1.082031 Z M 15.480469 1.082031 "/>
</g>
</svg>
